<svg id="Слой_1" data-name="Слой 1" xmlns="http://www.w3.org/2000/svg" viewBox="0 0 140 80"><title>ApplePay</title><path d="M45.86,26.87a6.57,6.57,0,0,0,1.55-4.76A6.68,6.68,0,0,0,43,24.37,6.2,6.2,0,0,0,41.45,29,5.51,5.51,0,0,0,45.86,26.87Zm4.32,11.08a6.76,6.76,0,0,1,3.22-5.68A7,7,0,0,0,48,29.32c-2.32-.23-4.53,1.37-5.71,1.37s-3-1.33-4.92-1.29a7.29,7.29,0,0,0-6.17,3.73c-2.62,4.57-.67,11.32,1.89,15C34.31,50,35.8,52,37.76,51.92s2.6-1.22,4.88-1.22,2.92,1.22,4.91,1.19,3.32-1.85,4.57-3.67A16.23,16.23,0,0,0,54.18,44,6.6,6.6,0,0,1,50.18,37.95ZM74.36,26.87a7.58,7.58,0,0,0-2.9-1.69,13.18,13.18,0,0,0-4.13-.58,27,27,0,0,0-3,.16c-.91.1-1.76.22-2.52.35l-.24,0V51.7h2.42V40.52a16.59,16.59,0,0,0,2.78.21,13.45,13.45,0,0,0,3.82-.52,8.53,8.53,0,0,0,3.06-1.6,7.72,7.72,0,0,0,2-2.66,8.57,8.57,0,0,0,.75-3.68,8.3,8.3,0,0,0-.54-3.08A7,7,0,0,0,74.36,26.87ZM72.13,37a8,8,0,0,1-5.24,1.57c-.61,0-1.2,0-1.73-.08a8.15,8.15,0,0,1-1.22-.2V27c.32-.06.72-.11,1.18-.16a20.32,20.32,0,0,1,2.12-.1,10,10,0,0,1,2.77.36,6.34,6.34,0,0,1,2.13,1A4.51,4.51,0,0,1,73.5,29.9,6.19,6.19,0,0,1,74,32.43,5.67,5.67,0,0,1,72.13,37Zm18.75,12.2c0-.75,0-1.51,0-2.26V39.58a13.88,13.88,0,0,0-.26-2.65,6.72,6.72,0,0,0-1-2.47,5.6,5.6,0,0,0-2-1.81,7,7,0,0,0-3.33-.7,10.66,10.66,0,0,0-2.86.38,9,9,0,0,0-2.67,1.27l-.2.14.82,1.92.3-.2A8,8,0,0,1,84,34.09a4.5,4.5,0,0,1,2.39.54A3.63,3.63,0,0,1,87.71,36a5.1,5.1,0,0,1,.58,1.73,11.79,11.79,0,0,1,.13,1.67v.21c-3.59,0-6.4.58-8.26,1.78a6,6,0,0,0-2.95,5.33,5.85,5.85,0,0,0,.35,2,5.07,5.07,0,0,0,1.06,1.75,5.19,5.19,0,0,0,1.8,1.24,6.29,6.29,0,0,0,2.52.47,7.44,7.44,0,0,0,2.1-.28,7,7,0,0,0,1.71-.76,7.25,7.25,0,0,0,1.32-1c.17-.17.32-.34.46-.51h.09l.22,2.15h2.34l-.06-.35A14.85,14.85,0,0,1,90.89,49.21Zm-2.46-3.78a4.19,4.19,0,0,1-.18,1,5.33,5.33,0,0,1-.65,1.3,5.08,5.08,0,0,1-1.06,1.12,5,5,0,0,1-1.48.79,5.94,5.94,0,0,1-1.94.3,3.85,3.85,0,0,1-1.28-.22,3.1,3.1,0,0,1-1.07-.64A3.19,3.19,0,0,1,80,48a4.09,4.09,0,0,1-.29-1.62,3.64,3.64,0,0,1,.83-2.5,5.44,5.44,0,0,1,2.16-1.46,11.1,11.1,0,0,1,2.92-.67c.86-.08,1.7-.12,2.49-.12h.31Zm18.91-13.06-4.52,12.29c-.28.74-.55,1.49-.79,2.22l-.34,1h-.09l-.35-1.07c-.23-.72-.49-1.43-.75-2.1L95.67,32.37H93.09L100,50.15a2,2,0,0,1,.21.7,2.71,2.71,0,0,1-.21.71,13,13,0,0,1-1.47,2.73A16.2,16.2,0,0,1,97,56.12,8.26,8.26,0,0,1,95.4,57.4a15.57,15.57,0,0,1-1.53.8l-.26.12.84,2,.27-.1c.22-.08.63-.27,1.26-.58A9.61,9.61,0,0,0,98,58.22a10.77,10.77,0,0,0,1.75-2,24.09,24.09,0,0,0,1.52-2.55c.5-1,1-2,1.48-3.23s1-2.53,1.54-4l5.59-14.14Z"/></svg>