<svg id="Слой_1" data-name="Слой 1" xmlns="http://www.w3.org/2000/svg" viewBox="0 0 140 80"><defs><style>.cls-1{fill:#93130a;}</style></defs><title>BankMIN</title><polygon class="cls-1" points="41 55 41 30 28 30 22.95 45.11 23 30 20 30 20 51 24 51 30 33 38 33 38 52 29.27 52.18 29 55 41 55"/><polygon class="cls-1" points="30 51 30.63 48.1 34.2 48.1 34.2 36.88 33.28 36.88 27 55 16 55 16 30 19 30 18.89 52.18 24.91 52.18 31 34 37 34 37 51 30 51"/><polygon class="cls-1" points="46.46 29.74 48 29.74 49.63 34.43 51.25 29.74 52.8 29.74 52.8 35.87 51.66 35.87 51.66 31.28 50.11 35.87 49.15 35.87 47.6 31.28 47.6 35.87 46.46 35.87 46.46 29.74"/><path class="cls-1" d="M60.07,32.84a3.23,3.23,0,1,1-3.23-3.21,3.18,3.18,0,0,1,3.23,3.21m-1.14,0a2.1,2.1,0,1,0-2.11,2.11,2.06,2.06,0,0,0,2.11-2.11"/><path class="cls-1" d="M65.33,31.49a1.92,1.92,0,0,0-1.54-.76,2.07,2.07,0,0,0-2.08,2.07,2.1,2.1,0,0,0,2.09,2.11,1.82,1.82,0,0,0,1.48-.71h1.32A3,3,0,0,1,63.76,36a3.2,3.2,0,1,1,0-6.39,3,3,0,0,1,2.84,1.87Z"/><polygon class="cls-1" points="67.35 29.74 68.49 29.74 68.49 32.4 70.39 29.74 71.75 29.74 69.44 32.75 71.75 35.87 70.39 35.87 68.49 33.19 68.49 35.87 67.35 35.87 67.35 29.74"/><path class="cls-1" d="M78.11,32.84a3.23,3.23,0,1,1-3.23-3.21,3.17,3.17,0,0,1,3.23,3.21m-1.14,0a2.1,2.1,0,1,0-2.11,2.11A2.07,2.07,0,0,0,77,32.81"/><path class="cls-1" d="M78.93,29.74H80.4c.38,0,2.13,0,2.13,1.62a1.27,1.27,0,0,1-.67,1.17,1.51,1.51,0,0,1,1,1.48c0,.89-.48,1.87-2.45,1.87H78.93Zm1.67,2.36c.75,0,.8-.47.8-.63,0-.6-.56-.63-.8-.63h-.53V32.1Zm.21,2.67c.13,0,1,0,1-.77,0-.23-.08-.8-1-.8h-.74v1.57Z"/><path class="cls-1" d="M88.18,31.49a1.93,1.93,0,0,0-1.54-.76,2.07,2.07,0,0,0-2.08,2.07,2.1,2.1,0,0,0,2.09,2.11,1.82,1.82,0,0,0,1.48-.71h1.32A3,3,0,0,1,86.61,36a3.2,3.2,0,1,1,0-6.39,3,3,0,0,1,2.84,1.87Z"/><polygon class="cls-1" points="90.2 29.74 91.34 29.74 91.34 32.4 93.25 29.74 94.61 29.74 92.29 32.75 94.61 35.87 93.25 35.87 91.34 33.19 91.34 35.87 90.2 35.87 90.2 29.74"/><polygon class="cls-1" points="96.48 29.74 96.48 34.05 99.21 29.74 100.35 29.74 100.35 35.87 99.21 35.87 99.21 31.56 96.48 35.87 95.34 35.87 95.34 29.74 96.48 29.74"/><path class="cls-1" d="M102.61,29.74V34l2.74-4.31h1.14v6.13h-1.14V31.56l-2.74,4.31h-1.14V29.74Zm.83-1.49a.56.56,0,0,0,1.08,0h1a1.54,1.54,0,0,1-3,0Z"/><polygon class="cls-1" points="47.6 39.41 47.6 43.72 50.33 39.41 51.47 39.41 51.47 45.54 50.33 45.54 50.33 41.23 47.6 45.54 46.46 45.54 46.46 39.41 47.6 39.41"/><polygon class="cls-1" points="52.6 39.41 53.73 39.41 53.73 41.87 55.97 41.87 55.97 39.41 57.11 39.41 57.11 45.54 55.97 45.54 55.97 42.97 53.73 42.97 53.73 45.54 52.6 45.54 52.6 39.41"/><path class="cls-1" d="M63.85,44.44h.57V46.3H63.28v-.76H58.86v.76H57.72V44.44h.59l2.27-5h1Zm-1.25,0L61.08,41l-1.52,3.46Z"/><polygon class="cls-1" points="66.41 45.54 65.17 45.54 65.89 43.98 63.53 39.41 64.91 39.41 66.53 42.67 67.94 39.41 69.19 39.41 66.41 45.54"/><path class="cls-1" d="M73.74,41.17a1.93,1.93,0,0,0-1.54-.76,2.07,2.07,0,0,0-2.08,2.07,2.1,2.1,0,0,0,2.09,2.11,1.82,1.82,0,0,0,1.48-.71H75a3,3,0,0,1-2.83,1.81,3.2,3.2,0,1,1,0-6.39A3,3,0,0,1,75,41.17Z"/><polygon class="cls-1" points="76.38 40.51 75.24 40.51 75.24 39.41 78.65 39.41 78.65 40.51 77.51 40.51 77.51 45.54 76.38 45.54 76.38 40.51"/><path class="cls-1" d="M79.24,39.41H81c2,0,2.2,1.33,2.2,1.92,0,.77-.41,1.9-2.2,1.9h-.58v2.32H79.24Zm1.14,2.71h.67c.3,0,1,0,1-.8s-.67-.8-1-.8h-.67Z"/><polygon class="cls-1" points="85.02 39.41 85.02 43.72 87.76 39.41 88.9 39.41 88.9 45.54 87.76 45.54 87.76 41.23 85.02 45.54 83.89 45.54 83.89 39.41 85.02 39.41"/><path class="cls-1" d="M92.07,39.41H93l2.55,6.13H94.28L93.65,44H91.4l-.63,1.58H89.52Zm1.15,3.45-.7-1.79-.7,1.79Z"/><polygon class="cls-1" points="101.5 45.54 100.25 45.54 98.58 40.98 96.9 45.54 95.65 45.54 98.08 39.41 99.08 39.41 101.5 45.54"/><path class="cls-1" d="M103.26,39.41v2.36h.91a1.81,1.81,0,0,1,2,1.89,1.87,1.87,0,0,1-2,1.88h-2V39.41Zm0,5h.92a.79.79,0,1,0,0-1.57h-.92Z"/><polygon class="cls-1" points="106.94 39.41 108.07 39.41 108.07 41.87 110.31 41.87 110.31 39.41 111.45 39.41 111.45 45.54 110.31 45.54 110.31 42.97 108.07 42.97 108.07 45.54 106.94 45.54 106.94 39.41"/><path class="cls-1" d="M113.71,39.41v2.36h.91a1.81,1.81,0,0,1,2,1.89,1.87,1.87,0,0,1-2,1.88h-2V39.41Zm0,5h.92a.79.79,0,1,0,0-1.57h-.92Zm3.56-5h1.14v6.13h-1.14Z"/><path class="cls-1" d="M120.67,39.41v4.31l2.74-4.31h1.13v6.13h-1.13V41.23l-2.74,4.31h-1.14V39.41Zm.83-1.49a.56.56,0,0,0,1.08,0h1a1.54,1.54,0,0,1-3,0Z"/><path class="cls-1" d="M50,49.11v1.1H47.6v1.26h1a1.81,1.81,0,0,1,2,1.89,1.87,1.87,0,0,1-2,1.88H46.46V49.11Zm-2.45,5h1a.79.79,0,1,0,0-1.57h-1Z"/><path class="cls-1" d="M53.48,49.11h.91l2.55,6.13H55.7l-.63-1.58H52.81l-.63,1.58H50.93Zm1.15,3.45-.7-1.79-.7,1.79Z"/><polygon class="cls-1" points="57.57 49.11 58.71 49.11 58.71 51.57 60.95 51.57 60.95 49.11 62.08 49.11 62.08 55.24 60.95 55.24 60.95 52.67 58.71 52.67 58.71 55.24 57.57 55.24 57.57 49.11"/><polygon class="cls-1" points="63.21 49.11 64.34 49.11 64.34 51.77 66.25 49.11 67.61 49.11 65.3 52.13 67.61 55.24 66.25 55.24 64.34 52.56 64.34 55.24 63.21 55.24 63.21 49.11"/></svg>