<svg id="Слой_1" data-name="Слой 1" xmlns="http://www.w3.org/2000/svg" viewBox="0 0 140 80"><defs><style>.cls-1,.cls-3{fill:#1b3f91;}.cls-2{fill:#e95a0c;}.cls-3{fill-rule:evenodd;}</style></defs><title>BankPSB</title><path class="cls-1" d="M76.49,27.77v0a1.73,1.73,0,0,0,1.26-1.8c0-1.33-1.08-1.94-2.6-1.94H72.57v3.18H71.05a2.18,2.18,0,0,0-2.46,2.21c0,1.11.64,1.6,1.82,2.19.72.36,1.58.58,1.58,1.4,0,.43-.4,1-1.26,1h-1.6a2.51,2.51,0,0,0,.34-1.25c0-.51-.18-2.55-3-2.55H64.13V38h1.58V34.57l.64.64h4.32c2,0,3-1,3-2.28a2.42,2.42,0,0,0-.22-1.08h1.62c2.5,0,3.08-1.24,3.08-2.21A1.83,1.83,0,0,0,76.49,27.77Zm-10,6.16h-.74V31.36h.74a1.19,1.19,0,0,1,1.34,1.24A1.26,1.26,0,0,1,66.45,33.93ZM72.57,29V31a11.21,11.21,0,0,0-1.28-.61c-.5-.22-1-.5-1-1.13,0-.32.2-.8,1.16-.8h1.78Zm1.58-3.82h.72c1.22,0,1.28.75,1.28,1s-.18,1-1.22,1h-.78Zm.9,5.38h-.9V28.42h.9c1.1,0,1.4.53,1.4,1.09S76.05,30.61,75.05,30.61Z"/><path class="cls-1" d="M85,23.82A6.81,6.81,0,0,0,78.19,17H68.56A6.81,6.81,0,0,0,62,22H73.64C78.11,22,80,24.07,80,29V40a6.83,6.83,0,0,0,5-6.56Z"/><path class="cls-2" d="M57,38.18A6.82,6.82,0,0,0,63.81,45h9.62A6.81,6.81,0,0,0,80,40H68.36C63.89,40,62,37.93,62,33V22a6.83,6.83,0,0,0-5,6.56Z"/><polygon class="cls-3" points="107.41 58.79 107.41 50.89 109.7 50.89 109.7 53.83 112.18 53.83 112.18 50.89 114.44 50.89 114.44 58.79 112.18 58.79 112.18 55.27 109.7 55.27 109.7 58.79 107.41 58.79 107.41 58.79"/><path class="cls-3" d="M104.11,57.54V54.74c-1,.13-2.38.3-2.38,1.67,0,1.69,1.81,1.37,2.38,1.14Zm-4.47-1a2.35,2.35,0,0,1,1.65-2.3,8.27,8.27,0,0,1,1.31-.36c.38-.07.89-.13,1.49-.21v-.25c0-1.14-.61-1.36-1.42-1.36a4.7,4.7,0,0,0-2.17.59l-.15-1.42a8.33,8.33,0,0,1,2.85-.5,4.62,4.62,0,0,1,1.56.21,2,2,0,0,1,1.43,1.73,5.58,5.58,0,0,1,0,.8v4.92c-2,.76-6.59,1.27-6.59-1.85Z"/><path class="cls-3" d="M96.24,57.28a1.07,1.07,0,0,1-.93.46c-1.31,0-1.62-2.15-1.62-3.12a3.4,3.4,0,0,1,.63-2.18,1.13,1.13,0,0,1,.95-.42,1.28,1.28,0,0,1,1.21.95,5.33,5.33,0,0,1,.34,2,4,4,0,0,1-.57,2.3ZM99,53.07a3.4,3.4,0,0,0-1-1.62c-.78-.74-3.52-1.35-4.85.63,0-2.09.89-3.12,2.66-3.42s2.74-.46,2.74-.46l-.17-1.69s-1.81.25-3.31.59A4.56,4.56,0,0,0,91.52,51a13.72,13.72,0,0,0,.23,5.44A3.54,3.54,0,0,0,95.3,59c2.68,0,3.92-1.65,3.92-4.23A7.22,7.22,0,0,0,99,53.07Z"/><polygon class="cls-3" points="115.75 58.79 115.75 50.89 118.01 50.89 118.01 54.53 120.54 50.89 122.77 50.89 120.19 54.42 123.03 58.79 120.51 58.79 118.01 54.87 118.01 58.79 115.75 58.79 115.75 58.79"/><path class="cls-3" d="M79.76,59a6.21,6.21,0,0,1-2.15-.31l.18-1.37a3.08,3.08,0,0,0,1.65.46c1.14,0,1.77-.53,1.74-1.27a1,1,0,0,0-.35-.82,1.27,1.27,0,0,0-.79-.31c-.31,0-.55,0-.76,0h-.55V54.1h.15c.84,0,2.15,0,2.15-1.12,0-.84-.87-1-1.31-1a3.89,3.89,0,0,0-1.92.5l-.12-1.3a6.75,6.75,0,0,1,2.53-.45c1.83,0,3,.79,2.93,2a1.93,1.93,0,0,1-1.45,1.8,2.72,2.72,0,0,1,1,.37,1.8,1.8,0,0,1,.76,1.53,2.23,2.23,0,0,1-1.34,2.09,5.73,5.73,0,0,1-2.35.44Z"/><path class="cls-3" d="M59.42,59c-2.61,0-4.06-1.58-4.06-4.16a3.77,3.77,0,0,1,4.09-4.1,5,5,0,0,1,1.86.32l-.24,1.43a2.66,2.66,0,0,0-1.25-.34c-1.53,0-2.18,1.25-2.18,2.62s.64,2.78,2.19,2.78a2.59,2.59,0,0,0,1.27-.31l.17,1.46a5.37,5.37,0,0,1-1.84.3Z"/><path class="cls-3" d="M84.42,58.79v-7.9h2.24v2.49l.9,0a3.88,3.88,0,0,1,2.29.52,2.42,2.42,0,0,1,.92,2C90.71,58.47,88.1,59,86.68,59a11.86,11.86,0,0,1-2.26-.17Zm2.24-1.27s2,.43,2-1.52a1.36,1.36,0,0,0-.2-.82c-.23-.4-.75-.47-1.3-.47h-.32a1.1,1.1,0,0,0-.23,0v2.78Z"/><path class="cls-3" d="M64.7,54.19V52s.23,0,.79,0c1.08,0,1.3.63,1.3,1,0,.78-.47,1.16-1.57,1.16Zm.56,1.23c.21,0,.44,0,.72,0a1.17,1.17,0,0,1,.72.27.89.89,0,0,1,.32.78c0,.87-.76,1.18-1.75,1.18l-.56,0V55.42Zm2.24-.82a1.77,1.77,0,0,0,1.42-1.79,1.86,1.86,0,0,0-.26-1,1.78,1.78,0,0,0-.87-.69,6.71,6.71,0,0,0-2.58-.4,16.82,16.82,0,0,0-2.71.19v7.9a20.14,20.14,0,0,0,2.71.17c1.59,0,4-.4,4.06-2.41v-.09a1.81,1.81,0,0,0-1.77-1.88Z"/><path class="cls-3" d="M74.22,54.32h-.56c-1.08,0-1.53-.36-1.53-1.25S72.83,52,73.4,52a6.49,6.49,0,0,1,.82,0v2.32Zm-.5-3.61C72.05,50.7,70,51,70,53.11a2,2,0,0,0,1.65,2.11l-2.12,3.57h2.35l1.69-3.15h.67v3.15h2.23v-7.9a17.4,17.4,0,0,0-2.73-.19Z"/><polygon class="cls-3" points="18.9 58.79 18.9 47.9 27.2 47.9 27.2 58.79 24.79 58.79 24.79 49.44 21.32 49.44 21.32 58.79 18.9 58.79 18.9 58.79"/><path class="cls-3" d="M33.63,54.57c0-3-2.06-2.7-2.82-2.52v5.16c.31.07,2.82,1,2.82-2.64ZM28.52,62V51.11c2-.4,7.35-1.52,7.35,3.29a4.7,4.7,0,0,1-1,3.12,3.89,3.89,0,0,1-4.07,1.11V62Z"/><path class="cls-3" d="M40.59,57.72c.66,0,1.1-.53,1.28-1.23a7.08,7.08,0,0,0,.2-1.76,5.15,5.15,0,0,0-.3-1.9A1.28,1.28,0,0,0,40.59,52a1.42,1.42,0,0,0-1.33,1.11A5.25,5.25,0,0,0,39,54.74c0,1,.23,3,1.59,3ZM40.42,59c-2.61,0-3.74-1.65-3.74-4.12s1.34-4.14,4-4.14a3.67,3.67,0,0,1,2.26.64A2.86,2.86,0,0,1,44,52.92a6.16,6.16,0,0,1,.29,1.86c0,2.66-1.13,4.18-3.89,4.18Z"/><polygon class="cls-3" points="44.78 58.79 45.6 50.89 48.23 50.89 49.86 56.28 51.48 50.89 54.07 50.89 54.83 58.79 52.74 58.79 52.3 53.11 50.59 58.79 48.78 58.79 47.04 53.07 46.6 58.79 44.78 58.79 44.78 58.79"/></svg>