<svg id="Слой_1" data-name="Слой 1" xmlns="http://www.w3.org/2000/svg" viewBox="0 0 140 80"><defs><style>.cls-1{fill:#246435;}.cls-2{fill:#ea601e;}.cls-3{fill:#ebd19e;}.cls-4{fill:#0086c9;}.cls-5{fill:#48aa41;}</style></defs><title>BankInteza</title><path class="cls-1" d="M75.9,61.84H66.06c.74-.39.49-.84.31-1.3C65.91,59.36,65.5,58.17,65,57a1,1,0,0,0-.71-.49c-1.31,0-2.63,0-3.94,0a.85.85,0,0,0-.65.37c-.46,1.1-.89,2.22-1.26,3.35s-.16,1.27,1,1.4a.39.39,0,0,1,.3.23H54.75l0-.13a1,1,0,0,1,.3-.11,2,2,0,0,0,1.8-1.42c.85-2.08,1.68-4.16,2.52-6.24l2.93-7.31a4.28,4.28,0,0,1,.3-.65c.19-.3.42-.32.6,0a8.46,8.46,0,0,1,.41.91Q66.26,53.45,68.91,60a3.69,3.69,0,0,0,.63,1.11,1.11,1.11,0,0,0,.86.33c.21,0,.47-.41.52-.66a11.59,11.59,0,0,0,.18-2q0-5.23,0-10.47c0-1.56-.13-1.67-1.69-1.85a.38.38,0,0,1-.3-.23h6.5a1.86,1.86,0,0,1-.37.21c-1.4.24-1.18.14-1.23,1.57s-.21,2.82-.24,4.16c0,.45,0,.65.51.65q3.23,0,6.45,0c.43,0,.49-.15.48-.59,0-1.39,0-2.77,0-4.16s-.21-1.5-1.44-1.6a.67.67,0,0,1-.49-.24h11.9c-.11.12-.13.18-.17.19-1.44.37-1.46.37-1.49,1.91s0,3,0,4.52a.61.61,0,0,0,0,.2c.06,0,.17,0,.19,0,1.65-1.76,3.32-3.5,4.94-5.28.62-.69.56-.92-.16-1.53h5.2l0,.12a1.46,1.46,0,0,1-.37.13,4.08,4.08,0,0,0-2.58,1.13C95,49.27,93.22,51,91.39,52.77c.7.79,1.33,1.53,2,2.24,1.32,1.41,2.64,2.83,4,4.21a6.76,6.76,0,0,0,4.25,2.41l-.06.26a19.23,19.23,0,0,0-2,0,5.36,5.36,0,0,1-4.9-2.11c-1.65-1.94-3.42-3.93-5.19-5.94,0,.3,0,4.27.06,6,0,1.48.17,1.62,1.62,1.77a.44.44,0,0,1,.35.22H79.45c.2-.13.25-.19.3-.2,1.27-.23,1.41-.28,1.45-1.49.07-1.89,0-3,0-5,0-.17,0-.57,0-1s-.32-.3-.48-.31H80.6c-2.08,0-4.16,0-6.24,0-.52,0-.62.14-.61.69.05,1.77.18,3.71.24,5.48.05,1.49,0,1.46,1.49,1.57l.4.05ZM87,48.27c0-.33,0-.44,0-.76,0-.68-.61-.92-1.45-.92-1,0-1.66.23-1.64,1.59,0,4.06,0,8,.09,12,0,1.09.41,1.33,1.64,1.35.91,0,1.24-.23,1.27-1.31C86.92,58.09,87,50.11,87,48.27Zm-22.54,7.2-2-5.45-.19,0-2,5.44Z"/><path class="cls-1" d="M45,61.85c1.52-.59,1.61-.61,1.63-2.3,0-3.87,0-7.74,0-11.61,0-1.07-.36-1.38-1.44-1.45a.2.2,0,0,1-.2-.18s0-.12.11-.12l9.17,0c1.06,0,1.11.05,1.28,1.1.11.69.16,1.39.24,2.08l-.24,0c-.06-.18-.12-.36-.17-.53a1.88,1.88,0,0,0-2-1.56c-.91,0-1.82,0-2.72,0s-1.34.32-1.4,1.27c-.08,1.32,0,2.66,0,4.05.89.09,1.82.18,2.74.29a4.9,4.9,0,0,1,4.37,3.74,4.46,4.46,0,0,1-4.15,5.1,15.84,15.84,0,0,1-2.14.07c-1.43,0-2.87,0-4.3,0Zm4.17-8.11c0,2.07,0,4.09,0,6.11a1,1,0,0,0,.79,1c2.13.68,4.29-.16,4-3,0-.24-.07-.47-.11-.71A4,4,0,0,0,49.21,53.74Z"/><path class="cls-1" d="M98.68,38.81c0,2-1.15,1.92-2.41,1.89-2.75-.08-5.49-.07-8.24-.1-.16,0-.32,0-.7-.08a3.68,3.68,0,0,1,.53-.2c1.06-.15,1.26-.33,1.32-1.41.07-1.24.07-9.55,0-12.47,0-.86-.27-1.09-1.22-1.21v2.65c-.19-.18-.28-.22-.29-.27-.06-1.19-.91-1.5-1.86-1.57S84,26,83,26c0,.15,0,.34,0,.52q0,5.7,0,11.4c0,.14,0,.29,0,.43.06,1.62.19,1.76,1.8,1.94a.45.45,0,0,1,.34.22h-7l0-.16.72-.08c1-.11,1.34-.4,1.42-1.42,0-.57.08-1.15.09-1.72q0-5.27,0-10.54c0-.21,0-.42-.06-.74-1.14.08-2.24.09-3.32.26-.37.06-.71.49-1,.79a2.14,2.14,0,0,0-.31.6l-.2,0V25.3c-.64,0-.93.23-1,.71a4.11,4.11,0,0,0-.09.85q0,5.52,0,11c0,.1,0,.19,0,.29.07,1.78.07,1.78,1.66,2.34H69.92a3,3,0,0,1,.5-.19c1-.12,1.22-.28,1.27-1.27.08-2,0-4,0-5.95,0-.4,0-.55-.41-.55q-3.26,0-6.52,0c-.43,0-.56.15-.55.58,0,1.84-.06,3.68,0,5.52,0,1.37.33,1.56,1.72,1.66a.62.62,0,0,1,.46.21h-12v-.16l.51-.08c1-.1,1.38-.35,1.42-1.34.13-3.34.19-6.68.28-10l-.21-.07-.65,1c-2,3.14-4,6.26-5.88,9.42a2.25,2.25,0,0,1-2.39,1.27,22,22,0,0,0-2.44,0c.22-.17.27-.24.32-.24,1.14-.08,1.49,0,1.52-1.8.06-4,0-7.93,0-11.9,0-1.07-.22-1.27-1.27-1.44l-.35-.08s-.06-.07-.15-.18h6l0,.1a1.53,1.53,0,0,1-.34.14c-1.09.18-1.26.26-1.27,1.34,0,3.74,0,7.49,0,11.46.26-.36.42-.57.55-.79,1.46-2.5,2.86-5,4.38-7.48.94-1.52,2-2.95,3.09-4.39a1.11,1.11,0,0,1,.75-.43c2.44,0,4.87,0,7.31,0a3.06,3.06,0,0,1,.48.11,3.8,3.8,0,0,1-.46.18c-1.27.24-1.38.35-1.4,1.61s0,2.77,0,4.16c0,.47.12.63.58.62,2.15,0,4.3,0,6.45,0,.36,0,.46-.07.45-.51,0-1.46.06-2.92,0-4.37,0-1.17-.21-1.38-1.39-1.5a.81.81,0,0,1-.55-.24c.24,0,.48-.07.71-.07,1.41,0,2.82.09,4.23,0,3.39-.19,6.77.06,10.16,0s7,0,10.49.06c.9,0,1.8-.08,2.79-.13l-.27,2.92-.15,0a.89.89,0,0,1-.15-.26C97.35,26.35,97.16,26.1,96,26s-2.48-.09-3.72-.08a.64.64,0,0,0-.43.46c0,1.6,0,3.2,0,4.8,0,.36.12.52.5.52,1.31,0,2.63,0,3.94-.05a6.4,6.4,0,0,0,1.46-.44l-.24,3.31c-.15-.13-.24-.16-.25-.21-.28-1.39-.44-1.54-1.88-1.59-1,0-2,0-2.94,0-.43,0-.6.12-.59.57,0,1.48,0,3,0,4.44,0,.86.34,1.44,1.18,1.57a18,18,0,0,0,3.75.22c1-.05,1.44-.65,1.59-1.65.11-.69.16-1.39.24-2.08l.23,0c.1.29.21.59.31.88a4.45,4.45,0,0,0,6.34,2.77c1.4-.66,2.07-2.27,1.74-4.17a3.24,3.24,0,0,0-3-2.69c-.78-.07-1.58,0-2.36-.09-.21,0-.41-.23-.61-.36.19-.14.37-.38.57-.41.78-.11,1.58-.09,2.34-.24a2.94,2.94,0,0,0,2.31-3.84,2.45,2.45,0,0,0-2.12-1.88,8.13,8.13,0,0,0-2.35,0c-1.51.25-1.88.64-2.62,2.16l-.31-3.08c2.23,0,4.43-.09,6.61,0a3,3,0,0,1,3,2.37,3.4,3.4,0,0,1-1.7,3.72c-.35.23-.72.45-1.09.68a18.75,18.75,0,0,1,1.81.93,3.8,3.8,0,0,1,1.38,5c-1.17,2.49-3.45,3.63-6.4,3.23A6.71,6.71,0,0,1,98.68,38.81ZM59.14,32.7c0,2.1,0,4.2,0,6.3,0,1,.35,1.16,1.22,1.17S61.44,40,61.49,39c.07-1.24.09-2.48.09-3.72,0-2.94,0-5.87,0-8.81a1.09,1.09,0,0,0-1.06-1.21c-1,0-1.26.35-1.28,1.37C59.16,28.76,59.15,32.7,59.14,32.7Z"/><path class="cls-1" d="M115.44,24.42c.17.33.36.66.5,1q2.41,5.94,4.8,11.88c0,.11.09.22.14.33.63,1.37,1.09,2.91,3.14,2.75l-.08.2h-5.37c.59-.41.43-.84.24-1.3q-.69-1.73-1.31-3.48a.75.75,0,0,0-.83-.59c-1.29,0-2.58,0-3.87,0a.86.86,0,0,0-.66.36c-.47,1.15-.92,2.31-1.29,3.49-.3,1-.1,1.17.9,1.28a.48.48,0,0,1,.37.25h-4.62c1.55-.2,1.72-1.51,2.15-2.59q2.54-6.31,5.07-12.63c.14-.34.32-.66.49-1Zm1.41,9.78-2-5.46-.19,0-2,5.44Z"/><path class="cls-2" d="M37,23V43H17V23H37m1-1H16V44H38V22Z"/><rect class="cls-3" x="18" y="27" width="18" height="1"/><path class="cls-4" d="M21.5,28.5A3.5,3.5,0,0,0,18,32v7h1V32a2.5,2.5,0,0,1,2.5-2.5A1.5,1.5,0,0,1,23,31v8h1V31A2.5,2.5,0,0,0,21.5,28.5Z"/><path class="cls-5" d="M27.5,28.5A3.5,3.5,0,0,0,24,32v7h1V32a2.5,2.5,0,0,1,2.5-2.5A1.5,1.5,0,0,1,29,31v8h1V31A2.5,2.5,0,0,0,27.5,28.5Z"/><path class="cls-2" d="M33.5,28.5A3.5,3.5,0,0,0,30,32v7h1V32a2.5,2.5,0,0,1,2.5-2.5A1.5,1.5,0,0,1,35,31v8h1V31A2.5,2.5,0,0,0,33.5,28.5Z"/></svg>