<svg id="Слой_1" data-name="Слой 1" xmlns="http://www.w3.org/2000/svg" viewBox="0 0 140 80"><defs><style>.cls-1{fill:#1c1c1b;fill-rule:evenodd;}</style></defs><title>PhoneTele2</title><path class="cls-1" d="M88.48,49.5l-9.22.26V56h9.22V49.5Zm-3.2-11.22-6,.52v6.34l6-.31V38.28ZM78.1,28.12,71.81,29V56H78.1V28.12Zm10.38-1.47-9.22,1.26v6.24l9.22-1v-6.5Zm15.3,5.77c.73,1.52-.05,3.83-1.83,5.92-2.78,3.25-10.17,10-10.17,10l10.59-.37c6.45-6.29,8.81-10.12,9.22-14.88a8.33,8.33,0,0,0-2.52-6.71,9.58,9.58,0,0,0-8.12-2.2v6.92a2.67,2.67,0,0,1,2.83,1.36Zm-6.34,4.66c-.31-4.19,1-5.19,2.25-5.77v-7c-6.24,1.31-9.28,5.92-8.91,13.42l6.66-.63ZM112,56V48.82l-21.49.63L90.52,56ZM35.6,56V39.7L31,40.17V56ZM46.86,37.71l7-.73V31.52l-7,.94v5.24Zm0,18.29h7V50.55l-7,.21V56ZM61.12,30.48l-5.45.79V56h5.45V30.48Zm1,25.52h8V50.08l-8,.21V56ZM39.47,33.52,27,35.3l.05,4.61,12.42-1.36v-5Zm11.95,7.7-4.56.37v5.35l4.56-.26V41.22ZM46,32.62l-4.77.68V56H46V32.62Z"/></svg>