<?xml version="1.0" encoding="utf-8"?>
<!-- Generator: Adobe Illustrator 21.1.0, SVG Export Plug-In . SVG Version: 6.00 Build 0)  -->
<svg version="1.1" id="Слой_1" xmlns="http://www.w3.org/2000/svg" xmlns:xlink="http://www.w3.org/1999/xlink" x="0px" y="0px"
	 viewBox="0 0 140 80" style="enable-background:new 0 0 140 80;" xml:space="preserve">
<style type="text/css">
	.st0{fill:#1D1D1B;}
	.st1{fill:url(#SVGID_1_);}
	.st2{fill:url(#SVGID_2_);}
	.st3{fill:url(#SVGID_3_);}
	.st4{fill:url(#SVGID_4_);}
	.st5{fill:url(#SVGID_5_);}
</style>
<title>PhoneBeeline</title>
<g>
	<path class="st0" d="M83.2,36.9c-2.1,0-3.3,1.2-3.6,3.6L79.4,43c0,0.9-0.6,1.6-1.5,1.7c-0.2,0-0.3,0.1-0.4,0.3c0,0,0,0.1,0,0.1v1
		c0,0.2,0.1,0.3,0.4,0.3c2,0,3.1-1.2,3.3-3.5l0.2-2.2c0-0.6,0.1-1.1,0.4-1.6c0.4-0.3,0.9-0.5,1.4-0.5h1.6v7.2c0,0.2,0.1,0.3,0.2,0.3
		c0,0,0.1,0,0.1,0h1.1c0.2,0,0.3-0.1,0.3-0.3c0,0,0-0.1,0-0.1v-8.7c0-0.2-0.1-0.4-0.3-0.4H83.2z"/>
	<path class="st0" d="M70.3,42.3v-5.1c0-0.2-0.1-0.3-0.3-0.4c0,0-0.1,0-0.1,0h-1.2c-0.2,0-0.3,0.1-0.3,0.4v5.7
		c0,2.3,1.1,3.5,3.3,3.5c1.1,0,2.2-0.4,3-1.2L75,46c0.1,0.1,0.2,0.2,0.3,0.2h0.8c0.2,0,0.4-0.1,0.4-0.3v-8.7c0-0.2-0.1-0.4-0.4-0.4
		H75c-0.2,0-0.3,0.1-0.4,0.3c0,0,0,0.1,0,0.1v6.1c-0.6,0.8-1.6,1.3-2.5,1.2C70.9,44.6,70.3,43.8,70.3,42.3L70.3,42.3z"/>
	<path class="st0" d="M67.1,42c0-2.9-1.6-4.3-4.7-4.3H60v-2.8h5.4c0.2,0,0.3-0.1,0.4-0.4v-1c0-0.3-0.1-0.4-0.4-0.4h-7
		c-0.2,0-0.4,0.1-0.4,0.4v8.9c0,2.6,1.3,4,3.8,4h0.3C65.4,46.3,67.1,44.9,67.1,42L67.1,42z M62.4,39.4c1.8,0,2.7,0.9,2.7,2.6
		s-0.9,2.5-2.7,2.5h-0.6c-1.2,0-1.8-0.7-1.8-2v-3.1H62.4z"/>
	<path class="st0" d="M113.9,40.6h-4.3v-3.4c0-0.2-0.1-0.3-0.3-0.4c0,0-0.1,0-0.1,0h-1.2c-0.2,0-0.3,0.1-0.3,0.4v8.7
		c0,0.2,0.1,0.3,0.3,0.3h1.2c0.2,0,0.4-0.1,0.4-0.3v-3.6h4.3v3.6c0,0.2,0.1,0.3,0.4,0.3h1.1c0.2,0,0.4-0.1,0.4-0.3v-8.7
		c0-0.2-0.1-0.3-0.3-0.4c0,0-0.1,0-0.1,0h-1.1c-0.2,0-0.3,0.1-0.4,0.3c0,0,0,0.1,0,0.1L113.9,40.6L113.9,40.6z"/>
	<path class="st0" d="M105.3,36.9h-1.1c-0.3,0-0.4,0.1-0.4,0.4v6.1c-0.6,0.8-1.6,1.3-2.6,1.2c-1.1,0-1.7-0.8-1.7-2.3v-5.1
		c0-0.2-0.1-0.4-0.3-0.4H98c-0.3,0-0.4,0.1-0.4,0.4v5.7c0,2.3,1.1,3.5,3.3,3.5c1.1,0,2.2-0.4,3.1-1.2l0.2,0.8
		c0.1,0.1,0.2,0.2,0.3,0.2h0.8c0.2,0,0.3-0.1,0.3-0.3v-8.7C105.6,37,105.5,36.9,105.3,36.9L105.3,36.9z"/>
	<path class="st0" d="M105.6,33.4c0-0.3-0.1-0.4-0.4-0.4H98c-0.2,0-0.4,0.1-0.4,0.3c0,0,0,0.1,0,0.1v1c0,0.2,0.1,0.4,0.3,0.4
		c0,0,0.1,0,0.1,0h7.2c0.2,0,0.4-0.1,0.4-0.4L105.6,33.4L105.6,33.4z"/>
	<path class="st0" d="M93.6,38.7c0.2,0.4,0.3,0.8,0.3,1.2v0.2l-2.1,0.1c-2.3,0.2-3.5,1.2-3.5,3.1c0,2.1,1.2,3.1,3.5,3.1
		c0.8,0,1.7-0.2,2.4-0.7l0.2,0.3c0.1,0.1,0.2,0.2,0.3,0.2h0.7c0.2,0,0.3-0.1,0.3-0.3v-6.1c0-2.2-1.2-3.3-3.6-3.3
		c-1,0-1.9,0.1-2.8,0.5c-0.1,0.1-0.2,0.2-0.2,0.3v1c0,0.1,0.1,0.2,0.2,0.3h0.3c0.8-0.3,1.7-0.4,2.5-0.4
		C92.6,38.2,93.2,38.4,93.6,38.7L93.6,38.7z M91.9,44.7c-1.1,0-1.6-0.5-1.6-1.4c0-0.9,0.5-1.4,1.5-1.5l2.1-0.2v2.5
		C93.2,44.4,92.5,44.6,91.9,44.7L91.9,44.7z"/>
	
		<linearGradient id="SVGID_1_" gradientUnits="userSpaceOnUse" x1="24.6775" y1="35.6189" x2="52.3138" y2="35.6189" gradientTransform="matrix(1 0 0 -1 0 82)">
		<stop  offset="0" style="stop-color:#F6B61E"/>
		<stop  offset="0.52" style="stop-color:#FED238"/>
		<stop  offset="0.63" style="stop-color:#FEDC32"/>
		<stop  offset="0.8" style="stop-color:#FFE82A"/>
		<stop  offset="0.83" style="stop-color:#FFE93E"/>
		<stop  offset="0.91" style="stop-color:#FFEA71"/>
		<stop  offset="0.97" style="stop-color:#FFEB91"/>
		<stop  offset="1" style="stop-color:#FFEB9D"/>
	</linearGradient>
	<path class="st1" d="M27.9,49.3c3.8,0.1,8.2,0.2,10.6,0.2s6.7-0.1,10.5-0.2c1.6-1.7,2.7-3.8,3.2-6.1H24.7
		C25.2,45.5,26.4,47.6,27.9,49.3z"/>
	
		<linearGradient id="SVGID_2_" gradientUnits="userSpaceOnUse" x1="27.9171" y1="30.3512" x2="49.0742" y2="30.3512" gradientTransform="matrix(1 0 0 -1 0 82)">
		<stop  offset="0" style="stop-color:#1D1D1B"/>
		<stop  offset="0.23" style="stop-color:#1D2118"/>
		<stop  offset="0.45" style="stop-color:#1E2D0E"/>
		<stop  offset="0.66" style="stop-color:#1F3F00"/>
		<stop  offset="0.77" style="stop-color:#1F3904"/>
		<stop  offset="0.92" style="stop-color:#1E2A11"/>
		<stop  offset="1" style="stop-color:#1D1D1B"/>
	</linearGradient>
	<path class="st2" d="M27.9,49.3c5.3,5.8,14.3,6.3,20.1,1c0.4-0.3,0.7-0.7,1-1c-3.8,0.1-8.1,0.2-10.5,0.2
		C36.1,49.5,31.8,49.4,27.9,49.3z"/>
	
		<linearGradient id="SVGID_3_" gradientUnits="userSpaceOnUse" x1="24.25" y1="42.1978" x2="52.746" y2="42.1978" gradientTransform="matrix(1 0 0 -1 0 82)">
		<stop  offset="0" style="stop-color:#1D1D1B"/>
		<stop  offset="0.15" style="stop-color:#222220"/>
		<stop  offset="0.32" style="stop-color:#30302F"/>
		<stop  offset="0.51" style="stop-color:#484747"/>
		<stop  offset="0.7" style="stop-color:#686767"/>
		<stop  offset="0.76" style="stop-color:#636261"/>
		<stop  offset="0.84" style="stop-color:#535252"/>
		<stop  offset="0.92" style="stop-color:#393937"/>
		<stop  offset="1" style="stop-color:#1D1D1B"/>
	</linearGradient>
	<path class="st3" d="M24.3,39.8c0,1.2,0.1,2.4,0.4,3.5h27.6c0.6-2.3,0.6-4.7,0-7H24.7C24.4,37.5,24.2,38.6,24.3,39.8z"/>
	
		<linearGradient id="SVGID_4_" gradientUnits="userSpaceOnUse" x1="27.9171" y1="54.0539" x2="49.0742" y2="54.0539" gradientTransform="matrix(1 0 0 -1 0 82)">
		<stop  offset="0" style="stop-color:#1D1D1B"/>
		<stop  offset="0.14" style="stop-color:#222120"/>
		<stop  offset="0.31" style="stop-color:#2F2F2D"/>
		<stop  offset="0.48" style="stop-color:#454443"/>
		<stop  offset="0.65" style="stop-color:#636362"/>
		<stop  offset="0.67" style="stop-color:#686767"/>
		<stop  offset="0.74" style="stop-color:#636261"/>
		<stop  offset="0.82" style="stop-color:#535252"/>
		<stop  offset="0.92" style="stop-color:#393937"/>
		<stop  offset="1" style="stop-color:#1D1D1B"/>
	</linearGradient>
	<path class="st4" d="M49.1,30.3c-5.3-5.8-14.3-6.3-20.1-1c-0.4,0.3-0.7,0.7-1,1c3.8-0.1,8.2-0.2,10.6-0.2S45.3,30.1,49.1,30.3z"/>
	
		<linearGradient id="SVGID_5_" gradientUnits="userSpaceOnUse" x1="24.6776" y1="48.8195" x2="52.3138" y2="48.8195" gradientTransform="matrix(1 0 0 -1 0 82)">
		<stop  offset="0" style="stop-color:#F6B61E"/>
		<stop  offset="0.31" style="stop-color:#FDCC0B"/>
		<stop  offset="0.32" style="stop-color:#FDCC0C"/>
		<stop  offset="0.42" style="stop-color:#FED02C"/>
		<stop  offset="0.49" style="stop-color:#FED238"/>
		<stop  offset="0.56" style="stop-color:#FBDF60"/>
		<stop  offset="0.67" style="stop-color:#F8F093"/>
		<stop  offset="0.75" style="stop-color:#F6FBB3"/>
		<stop  offset="0.8" style="stop-color:#F5FFBF"/>
		<stop  offset="0.91" style="stop-color:#FBF2A9"/>
		<stop  offset="1" style="stop-color:#FFEB9D"/>
	</linearGradient>
	<path class="st5" d="M38.5,30.1c-2.4,0-6.8,0.1-10.6,0.2c-1.6,1.7-2.7,3.8-3.2,6.1h27.6c-0.6-2.2-1.7-4.3-3.2-6
		C45.3,30.1,41,30.1,38.5,30.1z"/>
</g>
</svg>
