<?xml version="1.0" encoding="utf-8"?>
<!-- Generator: Adobe Illustrator 21.1.0, SVG Export Plug-In . SVG Version: 6.00 Build 0)  -->
<svg version="1.1" id="Layer_1" xmlns="http://www.w3.org/2000/svg" xmlns:xlink="http://www.w3.org/1999/xlink" x="0px" y="0px"
	 viewBox="0 0 385.3 46.3" style="enable-background:new 0 0 385.3 46.3;" xml:space="preserve">
<style type="text/css">
	.st0{fill:#0071CE;}
	.st1{fill:#EB0029;}
</style>
<title>2016_RKIdentМонтажная область 1</title>
<g>
	<g>
		<path class="st0" d="M125.4,26c-0.6-1.3-1.3-2.4-2.3-3.4c2.4-2.6,3.7-6,3.6-9.6c0.1-2.7-0.6-5.3-1.8-7.6c-0.7-1.2-1.6-2.2-2.7-3
			c-1.4-1-3.1-1.6-4.8-1.9c-1.4-0.2-2.8-0.3-4.2-0.3H97.5c-1,0-2.1,0-3.1,0.1c-1,0.1-2,0.4-2.9,0.9c-0.9,0.5-1.6,1.3-2.1,2.2
			c-0.5,1-0.8,2-0.8,3.1c-0.1,0.9-0.1,1.7-0.1,2.6c0,4.1,0,15.6,0,17.7V36c0,1,0,2.1,0.1,3.1c0.1,1,0.4,2,0.9,2.9
			c0.5,0.9,1.3,1.6,2.2,2.1c1,0.5,2,0.8,3.1,0.8c0.9,0.1,1.6,0,2.6,0.1h15.7c1.9,0,3.9-0.2,5.8-0.7c1.1-0.3,2.2-0.9,3.2-1.5
			c1.1-0.8,2.1-1.8,2.7-3c1.2-2.4,1.9-5,1.8-7.6C126.8,30,126.3,27.9,125.4,26z M113.3,9c1.1,0,2.1,0.1,3.2,0.3
			c0.2,0.1,0.4,0.1,0.6,0.3c0.1,0.1,0,0,0.1,0.1c0.5,1,0.7,2.1,0.7,3.3c0,0.8-0.1,1.6-0.5,2.3c-0.3,0.6-0.7,1.1-1.1,1.6
			c-0.5,0.4-1.1,0.7-1.8,0.9c-1.1,0.2-2.2,0.4-3.3,0.3H97.5V9H113.3z M117.1,35.3C117.1,35.3,117.1,35.3,117.1,35.3
			c-0.4,0.3-0.9,0.4-1.3,0.5c-0.8,0.1-1.7,0.2-2.6,0.2H97.5v-9h13.5c1.1,0,2.2,0.1,3.3,0.3c0.7,0.1,1.3,0.4,1.8,0.9
			c0.5,0.5,0.9,1,1.1,1.6c0.3,0.7,0.5,1.5,0.5,2.3C117.8,33.2,117.6,34.3,117.1,35.3z"/>
		<path class="st0" d="M80.2,6.6c-0.9-2.3-2.7-4.1-4.8-5.2c-1.9-0.9-4-1.4-6.1-1.4H56.3c-2.1,0-4.2,0.5-6.1,1.4
			c-2.2,1.1-3.9,2.9-4.8,5.2C44,10,42.8,15,42.8,22.5S44,35,45.4,38.4c0.9,2.3,2.7,4.1,4.8,5.2c1.9,0.9,4,1.4,6.1,1.4h12.9
			c2.1,0,4.2-0.5,6.1-1.4c2.2-1.1,3.9-2.9,4.8-5.2c1.4-3.4,2.5-8.4,2.5-15.9S81.6,10,80.2,6.6z M71.9,35c-0.1,0.2-0.2,0.3-0.6,0.6
			c-0.6,0.3-1.3,0.4-2,0.4H56.3c-0.7,0-1.4-0.1-2-0.4c-0.4-0.3-0.5-0.4-0.6-0.6c-0.8-2.1-1.9-6-1.9-12.5s1-10.4,1.9-12.5
			c0.1-0.2,0.2-0.3,0.6-0.6C55,9.1,55.6,9,56.3,9h12.9c0.7,0,1.4,0.1,2,0.4c0.5,0.3,0.5,0.4,0.6,0.6c0.8,2.1,1.9,6,1.9,12.5
			S72.7,32.9,71.9,35z"/>
		<path class="st0" d="M169.5,6.6c-0.9-2.3-2.7-4.1-4.9-5.2c-1.9-0.9-4-1.4-6.1-1.4h-12.9c-2.1,0-4.2,0.5-6.1,1.4
			c-2.2,1.1-3.9,2.9-4.9,5.2c-1.3,3.4-2.5,8.4-2.5,15.9s1.1,12.5,2.5,15.9c0.9,2.3,2.7,4.1,4.9,5.2c1.9,0.9,4,1.4,6.1,1.4h12.9
			c2.1,0,4.2-0.5,6.1-1.4c2.2-1.1,3.9-2.9,4.9-5.2c1.4-3.4,2.5-8.4,2.5-15.9S170.9,10,169.5,6.6z M161.2,35
			c-0.1,0.2-0.2,0.3-0.6,0.6c-0.6,0.3-1.3,0.4-2,0.4h-12.9c-0.7,0-1.4-0.1-2-0.4c-0.5-0.3-0.5-0.4-0.6-0.6c-0.8-2.1-1.8-6-1.8-12.5
			s1-10.4,1.8-12.5c0.1-0.2,0.2-0.3,0.6-0.6c0.6-0.3,1.3-0.4,2-0.4h12.9c0.7,0,1.4,0.1,2,0.4c0.5,0.3,0.5,0.4,0.6,0.6
			c0.9,2.1,1.9,6,1.9,12.5S162,32.9,161.2,35z"/>
		<path class="st0" d="M21.7,32.7h0.3L28.3,45h10.1l-7.6-14.6l0.5-0.3c2.2-1.3,4.1-3.1,5.4-5.4c1.5-2.8,2.3-5.9,2.2-9
			C39,12.4,38.2,9,36.7,6c-1.1-2.2-3-3.9-5.3-4.8c-1.9-0.8-3.9-1.1-6-1.1H9.2c-1,0-2.1,0-3.1,0.1c-1,0.1-2,0.4-2.9,0.8
			C2.3,1.5,1.6,2.3,1.1,3.2c-0.5,1-0.8,2-0.8,3.1C0.2,7.3,0.2,8,0.2,9v36h9V32.6h11.6L21.7,32.7z M9.2,9h16.3c0.8,0,1.7,0.1,2.5,0.4
			c0.6,0.3,0.7,0.4,0.8,0.6c0.8,1.8,1.3,3.8,1.2,5.7c0.1,1.6-0.3,3.2-1,4.6c-0.8,1.3-2,2.2-3.5,2.7c-1.2,0.4-2.5,0.6-3.8,0.6H9.2V9z
			"/>
	</g>
	<path class="st1" d="M211.4,31.2c-2.4-3.2-5.2-6.2-8.4-8.7l-0.1-0.1c1.4-1.2,3.1-2.7,4.6-4.3c1.7-1.7,3.2-3.6,4.5-5.6
		c1.4-2.1,2.2-4.6,2.3-7.2V4c0-2.2-1.8-4-4-4h-2.2c-1.5,0-2.7,1.2-2.7,2.7l0,0c0.2,1.8-0.2,3.6-1,5.2c-0.1,0.2-0.3,0.4-0.4,0.6
		c-2,2.6-4.2,5-6.8,7c-1.2,1-2.3,1.8-3,2.4l-0.1,0.1h-6.6V4c0-2.2-1.8-4-4-4h-0.9c-2.2,0-4,1.8-4,4v36.9c0,2.2,1.8,4,4,4h0.9
		c2.2,0,4-1.8,4-4v-14h6.6c2.1,1.5,4.1,3.2,6,5c1.5,1.4,2.8,2.9,4,4.6c0.7,0.8,1.1,1.9,1.3,2.9v1.3c0,2.2,1.8,4,4,4h0.9
		c2.2,0,4-1.8,4-4v-1.3C214.2,36.4,213.2,33.6,211.4,31.2z M292.6,18.4c-1.1-0.3-2.3-0.5-3.4-0.5h-12.1c-1,0-2-0.1-2.9-0.4
		c-0.7-0.3-0.7-0.4-0.8-0.5c-0.6-1.1-0.8-2.4-0.8-3.6c-0.1-1.3,0.2-2.5,0.8-3.6c0.1-0.1,0.1-0.2,0.8-0.5c0.9-0.3,1.9-0.4,2.9-0.4
		h17.4c2.2,0,4-1.7,4.1-3.9c0,0,0,0,0-0.1V0H277c-0.8,0-1.6,0-2.4,0.1c-2.3,0.2-4.5,1-6.4,2.3c-2.1,1.7-3.6,4.1-4.1,6.8l-0.1,0.3
		c-0.6,2.6-0.6,5.4,0,8c0.1,0.3,0.1,0.6,0.2,0.8c0.6,2.2,1.8,4.3,3.5,5.8c2.1,1.6,4.7,2.6,7.4,2.7c0.6,0.1,1.3,0.1,1.9,0.1h10.6
		c1.5-0.1,2.9,0.7,3.4,2.1c0.4,1.5,0.4,3.1,0,4.7c-0.1,0.5-0.3,0.9-0.5,1.3c-0.3,0.5-0.9,0.8-1.5,0.8h-19.6c-2.2,0-4,1.7-4.1,3.9
		c0,0,0,0,0,0.1v0.9c0,2.2,1.8,4,4,4c0,0,0,0,0.1,0h19.6c1.2,0,2.3-0.1,3.4-0.4c1.4-0.4,2.8-1.2,3.8-2.2c2.7-2.9,4.1-6.8,4-10.8
		c0.1-4-1.3-7.8-4-10.8C295.3,19.5,294,18.8,292.6,18.4L292.6,18.4z M332.7,18.4c-1.1-0.3-2.3-0.5-3.4-0.5h-12.1c-1,0-2-0.1-2.9-0.4
		c-0.7-0.3-0.7-0.4-0.8-0.5c-0.6-1.1-0.8-2.4-0.8-3.6c-0.1-1.3,0.2-2.5,0.8-3.6c0.1-0.1,0.1-0.2,0.8-0.5c0.9-0.3,1.9-0.4,2.9-0.4
		h17.4c2.2,0,4-1.7,4.1-3.9c0,0,0,0,0-0.1V0h-21.5c-0.8,0-1.6,0-2.4,0.1c-2.3,0.2-4.5,1-6.4,2.3c-2.1,1.7-3.6,4.1-4.1,6.8l-0.1,0.3
		c-0.6,2.6-0.6,5.4,0,8c0.1,0.3,0.1,0.6,0.2,0.8c0.6,2.2,1.8,4.3,3.5,5.8c2.1,1.7,4.7,2.6,7.4,2.7c0.6,0.1,1.3,0.1,1.9,0.1h10.6
		c1.5-0.2,2.9,0.7,3.4,2.1c0.4,1.5,0.4,3.1,0,4.7c-0.1,0.5-0.3,0.9-0.5,1.3c-0.3,0.5-0.9,0.8-1.5,0.8h-19.6c-2.2,0-4,1.7-4.1,3.9
		c0,0,0,0,0,0.1v0.9c0,2.2,1.8,4,4,4c0,0,0,0,0.1,0h19.6c1.2,0,2.3-0.1,3.4-0.4c1.4-0.4,2.8-1.2,3.8-2.2c2.7-2.9,4.1-6.8,4-10.8
		c0.1-4-1.3-7.8-4-10.8C335.5,19.5,334.2,18.8,332.7,18.4L332.7,18.4z M254.2,5.2c-1.3-1.9-3.2-3.3-5.3-4.2c-1.6-0.6-3.3-0.9-5-1
		l0,0l0,0H235h-0.1c-1.7,0.1-3.4,0.4-5,1c-2.1,0.8-4,2.3-5.3,4.2c-2.5,3.6-5,9.5-5,18.2v17.3c0,2.2,1.7,4,3.9,4.1c0,0,0,0,0.1,0h0.9
		c2.2,0,4-1.8,4-4c0,0,0,0,0-0.1v-7.4h21.6v7.5c0,2.2,1.8,4,4,4h0.9c2.2,0,4-1.8,4-4V23.3C259.1,14.7,256.6,8.8,254.2,5.2z
		 M250.2,24.3h-21.5v-0.9c0-7,1.9-11,3.4-13.1c0.3-0.4,0.7-0.7,1.2-0.9c0.8-0.3,1.7-0.4,2.6-0.4h7.2c0.9,0,1.8,0.1,2.6,0.4
		c0.5,0.2,0.9,0.5,1.2,0.9c1.5,2.2,3.3,6.1,3.3,13L250.2,24.3z M385.2,23.3c0-8.6-2.5-14.5-4.9-18.1c-1.3-1.9-3.2-3.3-5.3-4.2
		c-1.6-0.6-3.3-0.9-5-1l0,0h-8.9h0c-1.7,0.1-3.4,0.4-5,1c-2.1,0.8-4,2.3-5.3,4.2c-2.5,3.6-5,9.5-5,18.2v17.3c0,2.2,1.7,4,3.9,4.1
		c0,0,0,0,0.1,0h0.9c2.2,0,4-1.8,4-4c0,0,0,0,0-0.1c0-1.8,0-4.3,0-7.4h21.5v7.5c0,2.2,1.8,4,4,4h1c2.2,0,4-1.8,4-4
		C385.2,37.2,385.2,31.4,385.2,23.3L385.2,23.3z M376.2,24.3h-21.5v-0.9c0-7,1.9-11,3.4-13.1c0.3-0.4,0.7-0.7,1.2-0.9
		c0.8-0.3,1.7-0.4,2.5-0.4h7.2c0.9,0,1.7,0.1,2.5,0.4c0.5,0.2,0.9,0.5,1.2,0.9c1.5,2.1,3.3,6.1,3.3,13L376.2,24.3z"/>
</g>
</svg>
