<svg id="Слой_1" data-name="Слой 1" xmlns="http://www.w3.org/2000/svg" viewBox="0 0 140 80"><defs><style>.cls-1{fill:#121212;}</style></defs><title>StoreEuroset</title><path class="cls-1" d="M69.86,40.65a7.27,7.27,0,0,1-7.71,7.2,7.32,7.32,0,0,1-7.56-7.31c.08-4.35,3.39-7.33,8.07-7.27A7.27,7.27,0,0,1,69.86,40.65Zm-7.62-3.5a3.42,3.42,0,0,0,0,6.85,3.43,3.43,0,0,0,0-6.85Z"/><path class="cls-1" d="M37.81,39.94c2,1,2.69,2.14,2.4,3.95a4.13,4.13,0,0,1-3.92,3.64,59.17,59.17,0,0,1-6.12.12,1.84,1.84,0,0,1-1.77-1.87q0-5.22,0-10.44a1.76,1.76,0,0,1,1.6-1.8,23.2,23.2,0,0,1,6.9.24,3,3,0,0,1,2.53,2.55,3.09,3.09,0,0,1-1.49,3.46A.64.64,0,0,0,37.81,39.94Zm-5.35,4.41c1,0,1.85,0,2.73-.13.6-.06.86-.49.9-1.08s-.14-1.19-.79-1.29c-.93-.15-1.88-.14-2.84-.2Zm0-5.19c.77-.07,1.48-.1,2.17-.22a.88.88,0,0,0,.71-1,.93.93,0,0,0-.81-1c-.68-.09-1.36-.09-2.07-.13Z"/><path class="cls-1" d="M19.67,42v2c.23,0,.76,0,1,0h4a1.94,1.94,0,0,1,2.16,1.84,1.77,1.77,0,0,1-2,1.82H17.93a2,2,0,0,1-2.2-2.16q0-5,0-9.91a1.93,1.93,0,0,1,2-2.13c2.47-.07,4.94-.06,7.41,0a1.74,1.74,0,0,1,1.74,2,1.79,1.79,0,0,1-1.93,1.73c-1.46,0-2.77-.17-4.23-.17h-1v2h4c1.09,0,2,.48,2,1.5s-.93,1.47-2,1.5-3,0-3,0Z"/><path class="cls-1" d="M89.67,42v2c.23,0,.76,0,1,0h4a1.94,1.94,0,0,1,2.16,1.84,1.77,1.77,0,0,1-2,1.82H87.93a2,2,0,0,1-2.2-2.16q0-5,0-9.91a1.93,1.93,0,0,1,2-2.13c2.47-.07,4.94-.06,7.41,0a1.74,1.74,0,0,1,1.74,2,1.79,1.79,0,0,1-1.93,1.73c-1.46,0-2.77-.17-4.23-.17h-1v2h4c1.09,0,2,.48,2,1.5s-.93,1.47-2,1.5-3,0-3,0Z"/><path class="cls-1" d="M45.85,43.8c0,.72,0,1.3,0,1.87a2,2,0,0,1-2.11,2.17,2,2,0,0,1-2-2.24q0-5,0-9.91a2,2,0,0,1,2.12-2.25c1.79,0,3.6,0,5.39.1a4.81,4.81,0,0,1,4.34,5.18,4.87,4.87,0,0,1-4.42,5.06C48.13,43.87,47.05,43.8,45.85,43.8Zm0-3.4h1.84a3.12,3.12,0,0,0,.54,0c.81-.15,1.19-.64,1.23-1.59s-.32-1.63-1.06-1.71a23.21,23.21,0,0,0-2.55,0Z"/><path class="cls-1" d="M115.36,37.83c.87,0,1.65,0,2.43,0,4.33-.08,6,4.43,4.27,7.49A4.43,4.43,0,0,1,118,47.66c-1.55,0-3.1,0-4.65,0a2,2,0,0,1-2.07-2.08q0-5.12,0-10.24a2,2,0,0,1,1.92-2.08,2,2,0,0,1,2.14,2C115.39,36.1,115.36,36.91,115.36,37.83Zm0,6.35c.75,0,1.42,0,2.09,0A1.25,1.25,0,0,0,118.76,43c.1-.9-.19-1.59-.86-1.67a19.9,19.9,0,0,0-2.51,0Z"/><path class="cls-1" d="M78.9,47.83a7.26,7.26,0,0,1-1.52-14.42,8.22,8.22,0,0,1,5.06.66,3.34,3.34,0,0,1,.79.51,2,2,0,0,1,.44,2.55,2,2,0,0,1-2.57.69,7.45,7.45,0,0,0-1.9-.63A3.15,3.15,0,0,0,75.9,39a3.74,3.74,0,0,0,.62,4,3.51,3.51,0,0,0,3.88.63c.27-.12.52-.27.79-.38a1.92,1.92,0,0,1,2.57.77,2,2,0,0,1-.63,2.62,6.7,6.7,0,0,1-3.41,1.12C79.44,47.85,79.17,47.83,78.9,47.83Z"/><path class="cls-1" d="M106.06,37.26c0,2.84,0,5.67,0,8.5a1.94,1.94,0,0,1-1.16,1.9,2,2,0,0,1-2.11-.2,2,2,0,0,1-.81-1.83c0-2.54,0-5.08,0-7.62,0-.26,0-.53,0-.86H99.63a1.88,1.88,0,0,1-2-1.86,1.85,1.85,0,0,1,2-1.87q4.45,0,8.9,0a1.87,1.87,0,1,1,0,3.73h-2.16A.88.88,0,0,0,106.06,37.26Z"/></svg>