<?xml version="1.0" encoding="utf-8"?>
<!-- Generator: Adobe Illustrator 21.1.0, SVG Export Plug-In . SVG Version: 6.00 Build 0)  -->
<svg version="1.1" id="Слой_1" xmlns="http://www.w3.org/2000/svg" xmlns:xlink="http://www.w3.org/1999/xlink" x="0px" y="0px"
	 viewBox="0 0 140 80" style="enable-background:new 0 0 140 80;" xml:space="preserve">
<style type="text/css">
	.st0{fill:#010101;}
	.st1{fill:#B71F37;}
</style>
<title>W1</title>
<path class="st0" d="M93.1,33.1c-2.1-2.1-5.8-2-8.1,0.3l-8.3,8.3V24.9c0-3.3-2.5-5.9-5.5-5.9c-1.3,0-2.5,0.5-3.4,1.3
	c-0.3,0.2-0.6,0.5-0.9,0.8L46.1,41.8V24.9c0-3.3-2.5-5.9-5.5-5.9c-3,0-5.5,2.7-5.5,5.9v29.5c0,1.2,0.4,2.4,1,3.3
	c0.2,0.4,0.5,0.7,0.8,1.1c0.7,0.7,1.5,1.1,2.4,1.3h0c1.9,0.5,4.1,0,5.7-1.6l20.7-20.7v16.6c0,0.9,0.2,1.7,0.5,2.5
	c0.2,0.7,0.7,1.4,1.2,1.9c2.1,2.1,5.8,2,8.1-0.3l17.4-17.4C95.1,38.9,95.3,35.3,93.1,33.1z"/>
<path class="st1" d="M106.8,24.9c0.1-1.5-0.4-3-1.5-4.1c-1.1-1.1-2.7-1.6-4.3-1.5c-0.7,0-1.3,0.2-1.9,0.5c-0.7,0.3-1.4,0.7-2,1.3
	L86,32.3c-2.3,2.3-2.4,5.9-0.3,8.1c2.1,2.1,5.8,2,8.1-0.3l1.9-1.9v16.6c0,3.3,2.5,5.9,5.5,5.9c3,0,5.5-2.7,5.5-5.9V25.3
	C106.8,25.1,106.8,25,106.8,24.9z"/>
</svg>
